<svg width="137" height="137" viewBox="0 0 137 137" fill="none" xmlns="http://www.w3.org/2000/svg">
<path d="M68.5 128.266C71.495 128.266 73.9229 125.838 73.9229 122.843C73.9229 119.848 71.495 117.42 68.5 117.42C65.505 117.42 63.0771 119.848 63.0771 122.843C63.0771 125.838 65.505 128.266 68.5 128.266Z" stroke="#0A0000" stroke-width="10.9029" stroke-miterlimit="10"/>
<path d="M41.2712 62.7917H95.7858V95.5004C95.8009 99.0905 95.1058 102.648 93.7406 105.969C92.3754 109.289 90.367 112.307 87.8311 114.848C85.2951 117.389 82.2816 119.404 78.964 120.776C75.6464 122.148 72.0901 122.851 68.5 122.843C61.2785 122.843 54.3527 119.975 49.2464 114.868C44.14 109.762 41.2712 102.836 41.2712 95.6146V62.7917Z" stroke="#0A0000" stroke-width="10.9029" stroke-miterlimit="10"/>
<path d="M95.7288 62.7917H106.632C109.523 62.7917 112.297 63.9404 114.341 65.985C116.386 68.0297 117.535 70.8029 117.535 73.6946V84.5975H106.632C103.74 84.5975 100.967 83.4488 98.9221 81.4041C96.8775 79.3594 95.7288 76.5862 95.7288 73.6946V62.7917Z" stroke="#0A0000" stroke-width="10.9029" stroke-miterlimit="10"/>
<path d="M41.3854 62.9058V73.8087C41.3854 76.7004 40.2367 79.4736 38.192 81.5183C36.1473 83.563 33.3741 84.7117 30.4825 84.7117H19.5796V73.8087C19.5796 70.9171 20.7283 68.1439 22.773 66.0992C24.8177 64.0545 27.5909 62.9058 30.4825 62.9058H41.3854Z" stroke="#0A0000" stroke-width="10.9029" stroke-miterlimit="10"/>
<path d="M52.1742 62.7917V52.0029C52.1592 49.1159 51.0057 46.3514 48.9642 44.31C46.9228 42.2685 44.1583 41.115 41.2713 41.1H35.5629C28.381 41.0398 21.5138 38.1445 16.4567 33.0446C11.3996 27.9447 8.56225 21.0534 8.5625 13.8712V2.96832" stroke="#0A0000" stroke-width="10.9029" stroke-miterlimit="10"/>
<path d="M35.7913 19.3513V41.1" stroke="#0A0000" stroke-width="10.9029" stroke-miterlimit="10"/>
<path d="M84.8258 62.7917V52.0029C84.8408 49.1159 85.9943 46.3514 88.0358 44.31C90.0773 42.2685 92.8417 41.115 95.7288 41.1H101.437C108.619 41.0398 115.486 38.1445 120.543 33.0446C125.6 27.9447 128.438 21.0534 128.438 13.8712V2.96832" stroke="#0A0000" stroke-width="10.9029" stroke-miterlimit="10"/>
<path d="M101.209 19.3513V41.1" stroke="#0A0000" stroke-width="10.9029" stroke-miterlimit="10"/>
</svg>
