<svg width="78" height="78" viewBox="0 0 78 78" fill="none" xmlns="http://www.w3.org/2000/svg">
<path d="M38.9999 73.9C40.7488 73.9 42.1666 72.4822 42.1666 70.7333C42.1666 68.9844 40.7488 67.5667 38.9999 67.5667C37.251 67.5667 35.8333 68.9844 35.8333 70.7333C35.8333 72.4822 37.251 73.9 38.9999 73.9Z" stroke="#E06453" stroke-width="6.36667" stroke-miterlimit="10"/>
<path d="M23.1001 35.6667H54.9334V54.7667C54.9422 56.8631 54.5363 58.9406 53.7391 60.8795C52.9419 62.8185 51.7692 64.5807 50.2883 66.0646C48.8074 67.5486 47.0477 68.725 45.1104 69.5263C43.1732 70.3275 41.0965 70.7378 39.0001 70.7334C34.7832 70.7334 30.7389 69.0582 27.7571 66.0764C24.7753 63.0945 23.1001 59.0503 23.1001 54.8334V35.6667Z" stroke="#E06453" stroke-width="6.36667" stroke-miterlimit="10"/>
<path d="M54.8999 35.6667H61.2666C62.9551 35.6667 64.5745 36.3375 65.7685 37.5314C66.9625 38.7254 67.6332 40.3448 67.6332 42.0334V48.4H61.2666C59.578 48.4 57.9586 47.7292 56.7647 46.5353C55.5707 45.3413 54.8999 43.7219 54.8999 42.0334V35.6667Z" stroke="#222222" stroke-width="6.36667" stroke-miterlimit="10"/>
<path d="M23.1667 35.7333V42.1C23.1667 43.7885 22.496 45.4079 21.302 46.6019C20.108 47.7959 18.4886 48.4667 16.8001 48.4667H10.4334V42.1C10.4334 40.4115 11.1042 38.7921 12.2982 37.5981C13.4921 36.4041 15.1115 35.7333 16.8001 35.7333H23.1667Z" stroke="#222222" stroke-width="6.36667" stroke-miterlimit="10"/>
<path d="M29.4667 35.6667V29.3667C29.4579 27.6808 28.7843 26.0665 27.5922 24.8744C26.4001 23.6823 24.7858 23.0088 23.1 23H19.7667C15.5729 22.9648 11.5628 21.2741 8.60976 18.2961C5.65671 15.3181 3.99985 11.2939 4 7.1V0.733337" stroke="#222222" stroke-width="6.36667" stroke-miterlimit="10"/>
<path d="M19.8999 10.3V23" stroke="#222222" stroke-width="6.36667" stroke-miterlimit="10"/>
<path d="M48.5334 35.6667V29.3667C48.5422 27.6808 49.2158 26.0665 50.4079 24.8744C51.6 23.6823 53.2143 23.0088 54.9001 23H58.2334C62.4272 22.9648 66.4373 21.2741 69.3904 18.2961C72.3434 15.3181 74.0003 11.2939 74.0001 7.1V0.733337" stroke="#222222" stroke-width="6.36667" stroke-miterlimit="10"/>
<path d="M58.1001 10.3V23" stroke="#222222" stroke-width="6.36667" stroke-miterlimit="10"/>
</svg>
