<svg width="78" height="78" viewBox="0 0 78 78" fill="none" xmlns="http://www.w3.org/2000/svg">
<path d="M39 73.9C40.7489 73.9 42.1667 72.4822 42.1667 70.7333C42.1667 68.9844 40.7489 67.5667 39 67.5667C37.2511 67.5667 35.8334 68.9844 35.8334 70.7333C35.8334 72.4822 37.2511 73.9 39 73.9Z" stroke="#E06453" stroke-width="6.36667" stroke-miterlimit="10"/>
<path d="M23.1 35.6667H54.9333V54.7667C54.9421 56.8631 54.5362 58.9406 53.739 60.8795C52.9418 62.8185 51.769 64.5807 50.2882 66.0646C48.8073 67.5486 47.0476 68.725 45.1103 69.5263C43.173 70.3275 41.0964 70.7378 39 70.7334C34.783 70.7334 30.7388 69.0582 27.757 66.0764C24.7752 63.0945 23.1 59.0503 23.1 54.8334V35.6667Z" stroke="#222222" stroke-width="6.36667" stroke-miterlimit="10"/>
<path d="M54.9 35.6667H61.2667C62.9552 35.6667 64.5746 36.3375 65.7686 37.5314C66.9626 38.7254 67.6334 40.3448 67.6334 42.0334V48.4H61.2667C59.5781 48.4 57.9588 47.7292 56.7648 46.5353C55.5708 45.3413 54.9 43.7219 54.9 42.0334V35.6667Z" stroke="#222222" stroke-width="6.36667" stroke-miterlimit="10"/>
<path d="M23.1666 35.7333V42.1C23.1666 43.7885 22.4959 45.4079 21.3019 46.6019C20.1079 47.7959 18.4885 48.4667 16.8 48.4667H10.4333V42.1C10.4333 40.4115 11.1041 38.7921 12.298 37.5981C13.492 36.4041 15.1114 35.7333 16.8 35.7333H23.1666Z" stroke="#222222" stroke-width="6.36667" stroke-miterlimit="10"/>
<path d="M29.4667 35.6667V29.3667C29.4579 27.6808 28.7843 26.0665 27.5922 24.8744C26.4001 23.6823 24.7858 23.0088 23.1 23H19.7667C15.5729 22.9648 11.5628 21.2741 8.60976 18.2961C5.65671 15.3181 3.99985 11.2939 4 7.1V0.733337" stroke="#222222" stroke-width="6.36667" stroke-miterlimit="10"/>
<path d="M19.9 10.3V23" stroke="#222222" stroke-width="6.36667" stroke-miterlimit="10"/>
<path d="M48.5333 35.6667V29.3667C48.5421 27.6808 49.2157 26.0665 50.4078 24.8744C51.5998 23.6823 53.2141 23.0088 54.9 23H58.2333C62.4271 22.9648 66.4372 21.2741 69.3902 18.2961C72.3433 15.3181 74.0001 11.2939 74 7.1V0.733337" stroke="#222222" stroke-width="6.36667" stroke-miterlimit="10"/>
<path d="M58.1 10.3V23" stroke="#222222" stroke-width="6.36667" stroke-miterlimit="10"/>
</svg>
